<svg width="34" height="34" viewBox="0 0 34 34" fill="none" xmlns="http://www.w3.org/2000/svg">
<path d="M21.25 11.6875L10.625 22.3125C10.4841 22.4534 10.4049 22.6445 10.4049 22.8438C10.4049 23.043 10.4841 23.2341 10.625 23.375C10.7659 23.5159 10.957 23.5951 11.1562 23.5951C11.3555 23.5951 11.5466 23.5159 11.6875 23.375L22.3125 12.75C22.4534 12.6091 22.5326 12.418 22.5326 12.2188C22.5326 12.0195 22.4534 11.8284 22.3125 11.6875C22.1716 11.5466 21.9805 11.4675 21.7812 11.4675C21.582 11.4675 21.3909 11.5466 21.25 11.6875Z" fill="white"/>
<path d="M21.561 12.4387L21.56 21.2501C21.56 21.4496 21.6392 21.6409 21.7803 21.782C21.9214 21.9231 22.1127 22.0023 22.3122 22.0023C22.5117 22.0023 22.7031 21.9231 22.8442 21.782C22.9852 21.6409 23.0645 21.4496 23.0645 21.2501L23.0645 11.6876C23.0646 11.5887 23.0452 11.4909 23.0075 11.3995C22.9697 11.3082 22.9143 11.2252 22.8444 11.1553C22.7746 11.0855 22.6916 11.0301 22.6003 10.9923C22.5089 10.9545 22.4111 10.9352 22.3122 10.9353L12.7497 10.9353C12.5502 10.9353 12.3589 11.0146 12.2178 11.1556C12.0767 11.2967 11.9975 11.488 11.9975 11.6875C11.9975 11.8871 12.0767 12.0784 12.2178 12.2195C12.3589 12.3605 12.5502 12.4398 12.7497 12.4398L21.561 12.4387Z" fill="white"/>
</svg>
