<svg width="24" height="22" viewBox="0 0 24 22" fill="none" xmlns="http://www.w3.org/2000/svg">
<path d="M13.0733 0.867509C14.0136 0.0333427 15.4999 0.699509 15.4999 1.95834V20.0358C15.4999 21.2947 14.0136 21.962 13.0733 21.1255L7.83259 16.467C7.67259 16.3245 7.46586 16.2456 7.25158 16.2453H2.95825C2.26206 16.2453 1.59438 15.9688 1.1021 15.4765C0.609814 14.9842 0.333252 14.3165 0.333252 13.6203V8.37268C0.333252 7.67648 0.609814 7.0088 1.1021 6.51652C1.59438 6.02424 2.26206 5.74768 2.95825 5.74768H7.25158C7.46586 5.74742 7.67259 5.66855 7.83259 5.52601L13.0721 0.867509H13.0733ZM13.7499 2.60701L8.99575 6.83501C8.51513 7.26204 7.89451 7.49783 7.25158 7.49768H2.95825C2.72619 7.49768 2.50363 7.58986 2.33953 7.75396C2.17544 7.91805 2.08325 8.14061 2.08325 8.37268V13.6203C2.08325 14.1033 2.47525 14.4953 2.95825 14.4953H7.25158C7.89466 14.4955 8.5153 14.7317 8.99575 15.1592L13.7499 19.386V2.60701ZM16.9233 7.75551C17.0873 7.59165 17.3097 7.49961 17.5416 7.49961C17.7735 7.49961 17.9959 7.59165 18.1599 7.75551L20.1666 9.76334L22.1733 7.75668C22.2534 7.67071 22.35 7.60176 22.4573 7.55393C22.5646 7.50611 22.6805 7.48039 22.798 7.47832C22.9155 7.47625 23.0322 7.49786 23.1411 7.54187C23.2501 7.58587 23.349 7.65138 23.4321 7.73447C23.5152 7.81755 23.5807 7.91653 23.6247 8.02548C23.6687 8.13443 23.6903 8.25113 23.6883 8.36862C23.6862 8.48611 23.6605 8.60197 23.6127 8.7093C23.5648 8.81664 23.4959 8.91324 23.4099 8.99334L21.4033 11L23.4099 13.0067C23.5645 13.1725 23.6486 13.3919 23.6446 13.6186C23.6406 13.8453 23.5488 14.0616 23.3885 14.2219C23.2282 14.3822 23.0119 14.474 22.7852 14.478C22.5585 14.482 22.3391 14.3979 22.1733 14.2433L20.1666 12.2367L18.1599 14.2433C18.0798 14.3293 17.9832 14.3983 17.8759 14.4461C17.7685 14.4939 17.6527 14.5196 17.5352 14.5217C17.4177 14.5238 17.301 14.5022 17.1921 14.4582C17.0831 14.4141 16.9841 14.3486 16.901 14.2656C16.818 14.1825 16.7524 14.0835 16.7084 13.9745C16.6644 13.8656 16.6428 13.7489 16.6449 13.6314C16.647 13.5139 16.6727 13.398 16.7205 13.2907C16.7683 13.1834 16.8373 13.0868 16.9233 13.0067L18.9299 11L16.9233 8.99334C16.7594 8.82928 16.6674 8.60689 16.6674 8.37501C16.6674 8.14313 16.7594 7.92074 16.9233 7.75668V7.75551Z" fill="white"/>
</svg>
