<svg width="27" height="22" viewBox="0 0 27 22" fill="none" xmlns="http://www.w3.org/2000/svg">
<path d="M13.0733 0.867509C14.0136 0.0333427 15.4999 0.699509 15.4999 1.95834V20.0358C15.4999 21.2947 14.0136 21.962 13.0733 21.1255L7.83259 16.467C7.67259 16.3245 7.46586 16.2456 7.25159 16.2453H2.95825C2.26206 16.2453 1.59438 15.9688 1.1021 15.4765C0.609814 14.9842 0.333252 14.3165 0.333252 13.6203V8.37268C0.333252 7.67648 0.609814 7.0088 1.1021 6.51652C1.59438 6.02424 2.26206 5.74768 2.95825 5.74768H7.25159C7.46586 5.74742 7.67259 5.66855 7.83259 5.52601L13.0721 0.867509H13.0733ZM13.7499 2.60701L8.99575 6.83501C8.51513 7.26204 7.89451 7.49783 7.25159 7.49768H2.95825C2.72619 7.49768 2.50363 7.58986 2.33953 7.75396C2.17544 7.91805 2.08325 8.14061 2.08325 8.37268V13.6203C2.08325 14.1033 2.47525 14.4953 2.95825 14.4953H7.25159C7.89466 14.4955 8.5153 14.7317 8.99575 15.1592L13.7499 19.386V2.60701Z" fill="white"/>
<path d="M21.756 3.21934C21.8966 3.07889 22.0872 3 22.286 3C22.4847 3 22.6753 3.07889 22.816 3.21934C27.112 7.51534 27.112 14.4793 22.816 18.7753C22.6738 18.9078 22.4857 18.9799 22.2914 18.9765C22.0971 18.9731 21.9118 18.8944 21.7743 18.757C21.6369 18.6195 21.5582 18.4342 21.5548 18.2399C21.5514 18.0456 21.6235 17.8575 21.756 17.7153C22.6383 16.8332 23.3382 15.7858 23.8157 14.6332C24.2932 13.4805 24.5389 12.245 24.5389 10.9973C24.5389 9.74967 24.2932 8.51421 23.8157 7.36153C23.3382 6.20885 22.6383 5.16151 21.756 4.27934C21.6155 4.13871 21.5366 3.94809 21.5366 3.74934C21.5366 3.55059 21.6155 3.35997 21.756 3.21934V3.21934Z" fill="white"/>
<path d="M19.2807 6.75429C19.2111 6.68462 19.1284 6.62936 19.0373 6.59165C18.9463 6.55395 18.8488 6.53455 18.7502 6.53455C18.6517 6.53455 18.5542 6.55395 18.4631 6.59165C18.3721 6.62936 18.2894 6.68462 18.2197 6.75429C18.1501 6.82395 18.0948 6.90666 18.0571 6.99768C18.0194 7.08871 18 7.18626 18 7.28479C18 7.38331 18.0194 7.48087 18.0571 7.57189C18.0948 7.66291 18.1501 7.74562 18.2197 7.81529C18.6376 8.23315 18.9691 8.72923 19.1952 9.2752C19.4214 9.82117 19.5378 10.4063 19.5378 10.9973C19.5378 11.5882 19.4214 12.1734 19.1952 12.7194C18.9691 13.2653 18.6376 13.7614 18.2197 14.1793C18.0873 14.3215 18.0151 14.5095 18.0186 14.7038C18.022 14.8981 18.1007 15.0835 18.2381 15.2209C18.3755 15.3583 18.5609 15.437 18.7552 15.4405C18.9495 15.4439 19.1376 15.3718 19.2797 15.2393C20.4049 14.1141 21.037 12.588 21.037 10.9968C21.037 9.40556 20.4049 7.87949 19.2797 6.75429H19.2807Z" fill="white"/>
</svg>
